<?xml version="1.0" encoding="UTF-8"?>
<svg version="1.1" xmlns="http://www.w3.org/2000/svg" width="543" height="150">
<path d="M0 0 C1.07109009 -0.0071553 2.14218018 -0.01431061 3.24572754 -0.02168274 C4.42600525 -0.02437164 5.60628296 -0.02706055 6.82232666 -0.02983093 C8.68099365 -0.03968773 8.68099365 -0.03968773 10.57720947 -0.04974365 C14.69309731 -0.06951476 18.80894613 -0.08114778 22.92486572 -0.09111023 C24.341881 -0.0951577 25.75889608 -0.09927462 27.17591095 -0.10346031 C33.83409446 -0.12251494 40.49226687 -0.13674453 47.1504724 -0.14507228 C54.83435125 -0.1548416 62.51794178 -0.18115167 70.20171905 -0.22157317 C76.14150923 -0.25174683 82.08121683 -0.26654239 88.02108216 -0.26985329 C91.56823909 -0.27220271 95.11508812 -0.28114807 98.66216278 -0.30631447 C102.62189426 -0.33395408 106.58124749 -0.32976017 110.54107666 -0.32279968 C111.71325745 -0.33560974 112.88543823 -0.3484198 114.09313965 -0.36161804 C120.35530084 -0.32144386 124.21091664 -0.11359376 128.94049072 4.14717102 C132.64530135 8.35263174 134.06223644 10.64813396 134.08766174 16.2066803 C134.0983947 17.81331543 134.0983947 17.81331543 134.10934448 19.45240784 C134.11203339 20.63268555 134.11472229 21.81296326 134.11749268 23.02900696 C134.12406387 24.26811829 134.13063507 25.50722961 134.1374054 26.78388977 C134.15717651 30.89977761 134.16880953 35.01562643 134.17877197 39.13154602 C134.18281944 40.5485613 134.18693636 41.96557637 134.19112206 43.38259125 C134.21017668 50.04077476 134.22440627 56.69894716 134.23273402 63.3571527 C134.24250334 71.04103155 134.26881341 78.72462208 134.30923492 86.40839934 C134.33940858 92.34818952 134.35420413 98.28789713 134.35751504 104.22776246 C134.35986445 107.77491939 134.36880982 111.32176842 134.39397621 114.86884308 C134.42161582 118.82857456 134.41742191 122.78792779 134.41046143 126.74775696 C134.42967651 128.50602814 134.42967651 128.50602814 134.44927979 130.29981995 C134.40910561 136.56198114 134.20125551 140.41759694 129.94049072 145.14717102 C125.73503001 148.85198165 123.43952778 150.26891673 117.88098145 150.29434204 C116.80989136 150.30149734 115.73880127 150.30865265 114.63525391 150.31602478 C113.4549762 150.31871368 112.27469849 150.32140259 111.05865479 150.32417297 C109.81954346 150.33074417 108.58043213 150.33731537 107.30377197 150.34408569 C103.18788413 150.36385681 99.07203531 150.37548982 94.95611572 150.38545227 C93.53910045 150.38949974 92.12208537 150.39361666 90.7050705 150.39780235 C84.04688699 150.41685698 77.38871458 150.43108657 70.73050904 150.43941432 C63.0466302 150.44918364 55.36303967 150.47549371 47.6792624 150.51591522 C41.73947222 150.54608888 35.79976461 150.56088443 29.85989928 150.56419533 C26.31274235 150.56654475 22.76589332 150.57549011 19.21881866 150.60065651 C15.25908719 150.62829612 11.29973395 150.62410221 7.33990479 150.61714172 C5.58163361 150.63635681 5.58163361 150.63635681 3.7878418 150.65596008 C-2.4743194 150.6157859 -6.32993519 150.4079358 -11.05950928 146.14717102 C-14.76431991 141.94171031 -16.18125499 139.64620808 -16.2066803 134.08766174 C-16.2138356 133.01657166 -16.22099091 131.94548157 -16.22836304 130.8419342 C-16.23105194 129.66165649 -16.23374084 128.48137878 -16.23651123 127.26533508 C-16.24308243 126.02622375 -16.24965363 124.78711243 -16.25642395 123.51045227 C-16.27619506 119.39456443 -16.28782808 115.27871561 -16.29779053 111.16279602 C-16.301838 109.74578075 -16.30595492 108.32876567 -16.31014061 106.91175079 C-16.32919524 100.25356729 -16.34342483 93.59539488 -16.35175258 86.93718934 C-16.3615219 79.2533105 -16.38783197 71.56971996 -16.42825347 63.8859427 C-16.45842713 57.94615252 -16.47322269 52.00644491 -16.47653359 46.06657958 C-16.478883 42.51942265 -16.48782837 38.97257362 -16.51299477 35.42549896 C-16.54063438 31.46576748 -16.53644047 27.50641425 -16.52947998 23.54658508 C-16.54229004 22.3744043 -16.5551001 21.20222351 -16.56829834 19.99452209 C-16.52812416 13.7323609 -16.32027406 9.8767451 -12.05950928 5.14717102 C-7.85404856 1.44236039 -5.55854633 0.02542531 0 0 Z " fill="#49B4BB" transform="translate(16.05950927734375,-0.1471710205078125)"/>
<path d="M0 0 C6.6 0 13.2 0 20 0 C31.95744681 32.4893617 31.95744681 32.4893617 37 47 C38.7119018 44.4321473 39.6062392 42.58714749 40.58813477 39.72802734 C40.88506729 38.87058929 41.18199982 38.01315125 41.4879303 37.12973022 C41.80257736 36.20777863 42.11722443 35.28582703 42.44140625 34.3359375 C42.76914536 33.38812408 43.09688446 32.44031067 43.43455505 31.46377563 C44.48125666 28.43556407 45.52233847 25.40546368 46.5625 22.375 C47.60670783 19.33756605 48.65215677 16.30058352 49.70115662 13.26480103 C50.35403096 11.37499957 51.00405175 9.48420953 51.65101624 7.59237671 C51.9447966 6.74124298 52.23857697 5.89010925 52.54125977 5.01318359 C52.79948013 4.26056244 53.0577005 3.50794128 53.32374573 2.73251343 C54 1 54 1 55 0 C61.6 0 68.2 0 75 0 C75 23.43 75 46.86 75 71 C69.72 71 64.44 71 59 71 C58.97194824 67.83326771 58.9526833 64.66680333 58.9375 61.5 C58.92912109 60.65179688 58.92074219 59.80359375 58.91210938 58.9296875 C58.8721632 47.58497463 59.5261012 36.37357131 60 25 C54.39 40.18 48.78 55.36 43 71 C39.37 71 35.74 71 32 71 C28.11835222 61.56490564 24.69754572 51.97467636 21.25 42.375 C19.1875 36.64125 17.125 30.9075 15 25 C15 40.18 15 55.36 15 71 C10.05 71 5.1 71 0 71 C0 47.57 0 24.14 0 0 Z " fill="#434343" transform="translate(187,41)"/>
<path d="M0 0 C4.95 0 9.9 0 15 0 C15 24.75 15 49.5 15 75 C10.38 75 5.76 75 1 75 C0.67 73.68 0.34 72.36 0 71 C-0.763125 71.639375 -1.52625 72.27875 -2.3125 72.9375 C-6.93959913 76.48852957 -11.37198607 76.63041065 -17 76 C-22.82387232 74.34357255 -26.23785842 71.08278957 -29.7734375 66.29296875 C-32.81820592 60.60099721 -33.3621754 54.93661388 -33.3125 48.625 C-33.30404053 47.50182373 -33.30404053 47.50182373 -33.29541016 46.35595703 C-33.11248569 38.02293275 -31.50545841 31.63139453 -25.66015625 25.44140625 C-21.11055514 21.49128199 -16.29857833 20.66883999 -10.50390625 20.50390625 C-8 21 -8 21 0 25 C0 16.75 0 8.5 0 0 Z M-15 35 C-17.79697866 39.62259282 -18.40775842 43.12761868 -18.375 48.5 C-18.38273437 49.7684375 -18.39046875 51.036875 -18.3984375 52.34375 C-17.91185545 56.80885586 -16.80818918 60.51470174 -13.25 63.4375 C-9.86232946 64.28441764 -7.36855977 63.84213994 -4 63 C-1.61461771 61.67197169 -1.61461771 61.67197169 0 59 C0.59886767 55.49201747 0.55781131 52.05057814 0.5 48.5 C0.51546875 47.54996094 0.5309375 46.59992188 0.546875 45.62109375 C0.5610705 40.16560837 0.5610705 40.16560837 -1.8125 35.3984375 C-5.94237971 32.7582644 -11.0189154 31.72982336 -15 35 Z " fill="#434343" transform="translate(357,37)"/>
<path d="M0 0 C3.624186 3.42592638 6.86694355 6.77846262 7.17358398 11.89819336 C7.19751221 13.11643799 7.22144043 14.33468262 7.24609375 15.58984375 C7.27908911 16.94596861 7.31229961 18.30208825 7.34570312 19.65820312 C7.39265949 21.78389082 7.43697664 23.90956691 7.47680664 26.03540039 C7.64390643 34.54348104 8.20679824 42.64382502 10 51 C4.72 51 -0.56 51 -6 51 C-6 50.01 -6 49.02 -6 48 C-6.81791016 48.433125 -6.81791016 48.433125 -7.65234375 48.875 C-14.75087766 52.36966285 -20.15195723 53.21854688 -27.75 50.8125 C-31.98461429 48.45088818 -34.7934029 45.91958629 -37.375 41.8125 C-38.55945009 36.4824746 -37.85466846 31.18415272 -35.875 26.125 C-31.51460894 21.18322346 -25.44169037 18.84162789 -19 18 C-14.99330114 17.85215133 -11.00704604 17.87978862 -7 18 C-7.99 15.36 -8.98 12.72 -10 10 C-15.55493924 8.97296252 -15.55493924 8.97296252 -21 10 C-21.33 11.32 -21.66 12.64 -22 14 C-26.95 14 -31.9 14 -37 14 C-35.23196141 7.41896747 -33.95693248 3.82142838 -28 0 C-19.85876693 -4.49862319 -8.01804219 -5.14297584 0 0 Z M-21.8125 30.3125 C-23.48300688 32.68637819 -23.42582422 34.16117187 -23 37 C-22.10938785 38.97578739 -22.10938785 38.97578739 -20 40 C-15.47488646 40.51089992 -13.09827444 40.5262565 -9 38.5625 C-6.09618086 34.84198173 -6.5620188 31.55500448 -7 27 C-12.78463318 26.80391074 -16.96487383 26.80215002 -21.8125 30.3125 Z " fill="#434343" transform="translate(495,61)"/>
<path d="M0 0 C5.63370827 4.8288928 8.39333846 9.8172778 10 17 C10 20.96 10 24.92 10 29 C-0.89 29 -11.78 29 -23 29 C-20.78719329 35.71700174 -20.78719329 35.71700174 -17.4375 38 C-12.22738766 39.51566904 -6.97767834 39.45941547 -2.0234375 37.03125 C-0.20481908 35.86348957 -0.20481908 35.86348957 2 34 C4.31 36.31 6.62 38.62 9 41 C6.13708575 46.7258285 2.45219282 49.38152655 -3.63671875 51.45703125 C-12.17100425 53.41780098 -20.44020579 52.43385854 -28 48 C-33.20916784 44.11769566 -36.8846363 39.5228859 -38 33 C-38.89327631 22.38117781 -38.70198488 12.69187643 -31.625 4.125 C-22.63606046 -3.15176058 -10.63976168 -6.7032748 0 0 Z M-20 11 C-22.28989632 14.76368847 -22.28989632 14.76368847 -23 19 C-17.06 19 -11.12 19 -5 19 C-5.17694664 12.27910573 -5.17694664 12.27910573 -8.25 10.0625 C-12.57478066 8.39156202 -16.15924841 8.18344884 -20 11 Z " fill="#434343" transform="translate(309,61)"/>
<path d="M0 0 C2.23046875 1.58203125 2.23046875 1.58203125 3.8125 3.1875 C3.8125 4.1775 3.8125 5.1675 3.8125 6.1875 C1.5025 6.8475 -0.8075 7.5075 -3.1875 8.1875 C-1.8675 8.8475 -0.5475 9.5075 0.8125 10.1875 C0.8125 10.8475 0.8125 11.5075 0.8125 12.1875 C-3.50622336 13.62707445 -7.67007383 13.62840079 -12.1875 13.1875 C-15.125 11.625 -15.125 11.625 -17.1875 10.1875 C-18.1775 10.5175 -19.1675 10.8475 -20.1875 11.1875 C-20.1875 12.1775 -20.1875 13.1675 -20.1875 14.1875 C-13.05366995 18.11110653 -6.0172894 19.41124377 1.9765625 19.93359375 C3.52735261 20.05001219 5.07813357 20.16655261 6.62890625 20.28320312 C9.02404498 20.45505055 11.41935991 20.62374633 13.81494141 20.78930664 C41.98473874 22.76730999 41.98473874 22.76730999 50.8125 29.1875 C52.8125 32.1875 52.8125 32.1875 52.75 35.5625 C51.61742191 39.94180193 50.35306824 41.4166205 46.8125 44.1875 C39.57323177 48.09670484 31.01216575 49.63072518 22.8125 49.1875 C22.8125 46.2175 22.8125 43.2475 22.8125 40.1875 C24.02486328 39.98833984 24.02486328 39.98833984 25.26171875 39.78515625 C26.33035156 39.60855469 27.39898437 39.43195313 28.5 39.25 C29.55574219 39.07597656 30.61148438 38.90195313 31.69921875 38.72265625 C34.41499604 38.25582879 37.11374235 37.74327384 39.8125 37.1875 C39.8125 35.8675 39.8125 34.5475 39.8125 33.1875 C32.8825 32.5275 25.9525 31.8675 18.8125 31.1875 C18.8125 40.0975 18.8125 49.0075 18.8125 58.1875 C16.1725 57.8575 13.5325 57.5275 10.8125 57.1875 C10.8125 48.2775 10.8125 39.3675 10.8125 30.1875 C6.5225 30.1875 2.2325 30.1875 -2.1875 30.1875 C-12.28463856 28.89098026 -22.58956442 26.31056461 -30.1875 19.1875 C-31.79569739 15.97110522 -31.65611231 12.67605833 -31.1875 9.1875 C-28.43298071 3.88249988 -24.94944815 0.50271341 -19.5625 -2.0625 C-12.36776233 -3.66133059 -6.39864135 -4.06727518 0 0 Z " fill="#F9FCFC" transform="translate(60.1875,25.8125)"/>
<path d="M0 0 C3.40400341 3.04524815 5.78425745 6.57911802 7 11 C7 12.98 7 14.96 7 17 C2.38 17 -2.24 17 -7 17 C-7.33 15.865625 -7.66 14.73125 -8 13.5625 C-8.99963802 11.20450217 -9.45785744 10.23366229 -11.83984375 9.20703125 C-15.25562399 8.6663584 -17.32527781 8.65398862 -20.4375 10.25 C-23.79125703 14.00620787 -23.21790112 18.62436552 -23.25 23.375 C-23.270625 24.13039063 -23.29125 24.88578125 -23.3125 25.6640625 C-23.34473434 30.27357365 -22.98163536 33.25124486 -20 37 C-17.19084526 38.40457737 -15.11189466 38.24895157 -12 38 C-9.63517472 36.8727078 -9.63517472 36.8727078 -8 35 C-7.67 33.68 -7.34 32.36 -7 31 C-2.38 31 2.24 31 7 31 C7 37.57474205 6.151046 40.16209028 2 45 C-4.80417697 50.47028881 -11.38651709 51.86381634 -20 51 C-27.15941182 49.25738657 -32.06317179 46.2625452 -36 40 C-40.57391551 31.76695209 -40.21255398 21.00938701 -38.37890625 11.921875 C-35.87275605 4.65960864 -30.9727965 0.07668908 -24.25 -3.4375 C-15.62522432 -4.93024964 -7.48560874 -4.98529271 0 0 Z " fill="#434343" transform="translate(445,62)"/>
<path d="M0 0 C0 2.97 0 5.94 0 9 C-0.77085938 9.13277344 -1.54171875 9.26554687 -2.3359375 9.40234375 C-3.33882812 9.57894531 -4.34171875 9.75554687 -5.375 9.9375 C-6.37273438 10.11152344 -7.37046875 10.28554687 -8.3984375 10.46484375 C-10.96909656 10.87712062 -10.96909656 10.87712062 -13 12 C-13.33 12.99 -13.66 13.98 -14 15 C-12.83791016 15.19142578 -12.83791016 15.19142578 -11.65234375 15.38671875 C29.34202608 22.27026534 29.34202608 22.27026534 37 29 C39 32 39 32 38.9375 34.9375 C37.74089291 38.84641648 36.34732467 39.70352692 33 42 C29.5546875 43.484375 29.5546875 43.484375 25.875 44.75 C24.65554687 45.17796875 23.43609375 45.6059375 22.1796875 46.046875 C19 47 19 47 16 47 C16 44.36 16 41.72 16 39 C19.63 37.68 23.26 36.36 27 35 C23.22825637 30.71376061 23.22825637 30.71376061 12 29 C12 37.25 12 45.5 12 54 C9.36 53.67 6.72 53.34 4 53 C4 44.75 4 36.5 4 28 C-1.94 27.01 -1.94 27.01 -8 26 C-21.6635514 22.5046729 -21.6635514 22.5046729 -26 16 C-26.625 13.25 -26.625 13.25 -26 10 C-19.14772376 1.8586817 -10.38684798 -0.31475297 0 0 Z " fill="#F9FCFC" transform="translate(67,68)"/>
<path d="M0 0 C1 1 1 1 1.1328125 3.14453125 C1.13023437 4.02496094 1.12765625 4.90539063 1.125 5.8125 C1.12886719 7.12154297 1.12886719 7.12154297 1.1328125 8.45703125 C1.01114834 10.78654215 0.65514709 12.76938015 0 15 C-0.75925781 15.03738281 -1.51851562 15.07476562 -2.30078125 15.11328125 C-3.29464844 15.17902344 -4.28851562 15.24476562 -5.3125 15.3125 C-6.29863281 15.37050781 -7.28476562 15.42851563 -8.30078125 15.48828125 C-11.46302796 16.08778099 -12.18161292 16.37923008 -14 19 C-14.33098913 21.72024096 -14.48850826 24.22459295 -14.51171875 26.94921875 C-14.52966995 27.72183548 -14.54762115 28.49445221 -14.56611633 29.29048157 C-14.62026104 31.756099 -14.65412731 34.22152243 -14.6875 36.6875 C-14.72066952 38.36005306 -14.75515885 40.03258051 -14.79101562 41.70507812 C-14.87598949 45.8032455 -14.9427802 49.90135494 -15 54 C-19.95 54 -24.9 54 -30 54 C-30 36.51 -30 19.02 -30 1 C-25.38 1 -20.76 1 -16 1 C-15.34 1.99 -14.68 2.98 -14 4 C-13.566875 3.525625 -13.13375 3.05125 -12.6875 2.5625 C-9.00889754 -0.84361339 -4.69201339 -0.15135527 0 0 Z " fill="#434343" transform="translate(542,58)"/>
<path d="M0 0 C4.95 0 9.9 0 15 0 C15 17.49 15 34.98 15 53 C10.05 53 5.1 53 0 53 C0 35.51 0 18.02 0 0 Z " fill="#434343" transform="translate(382,59)"/>
<path d="M0 0 C0.1875 3.375 0.1875 3.375 0 7 C-0.99 7.66 -1.98 8.32 -3 9 C-2.67 9.99 -2.34 10.98 -2 12 C-0.18881619 12.81670777 -0.18881619 12.81670777 2.04296875 13.24609375 C2.86990234 13.44396484 3.69683594 13.64183594 4.54882812 13.84570312 C5.41958984 14.04099609 6.29035156 14.23628906 7.1875 14.4375 C13.30364354 15.81259056 17.99431371 17.15007279 23 21 C23.928125 21.680625 23.928125 21.680625 24.875 22.375 C26.58761248 24.84877359 26.1945254 27.08211895 26 30 C25.01 30 24.02 30 23 30 C21.33333333 28.33333333 19.66666667 26.66666667 18 25 C14.83354526 23.20679176 14.83354526 23.20679176 12 22 C12.04125 23.27875 12.0825 24.5575 12.125 25.875 C12.1953125 28.0546875 12.1953125 28.0546875 12 30 C11.34 30.66 10.68 31.32 10 32 C5.44444444 31.44444444 5.44444444 31.44444444 4 30 C3.92794489 28.31391034 3.91613932 26.62499341 3.9375 24.9375 C3.94652344 24.01839844 3.95554687 23.09929687 3.96484375 22.15234375 C3.97644531 21.44207031 3.98804687 20.73179687 4 20 C2.72125 19.938125 1.4425 19.87625 0.125 19.8125 C-5.5004879 19.16065775 -10.46546783 17.45403818 -15 14 C-16.5 10.5 -16.5 10.5 -16 7 C-11.45282812 2.00920159 -6.82213258 0 0 0 Z " fill="#F6FBFB" transform="translate(67,110)"/>
<path d="M0 0 C3.36297424 1.31564055 4.86786941 2.73149161 6.8671875 5.73046875 C7.82877448 10.42777862 7.50353421 13.69110245 4.9921875 17.79296875 C2.8671875 19.73046875 2.8671875 19.73046875 0.8671875 19.73046875 C0.8671875 24.68046875 0.8671875 29.63046875 0.8671875 34.73046875 C-1.7728125 34.73046875 -4.4128125 34.73046875 -7.1328125 34.73046875 C-7.1328125 29.78046875 -7.1328125 24.83046875 -7.1328125 19.73046875 C-8.4528125 19.07046875 -9.7728125 18.41046875 -11.1328125 17.73046875 C-13.49317969 14.18991796 -13.73890811 12.19376338 -13.63671875 8.03125 C-12.85660801 4.46934902 -11.0981845 2.80702451 -8.203125 0.703125 C-5.25057155 -0.68401804 -3.15485447 -0.71812835 0 0 Z " fill="#FBFDFD" transform="translate(78.1328125,8.26953125)"/>
<path d="M0 0 C2.65555136 2.24062146 2.93730402 3.57008472 3.4375 7 C3 10 3 10 1.375 12.3125 C-1.55936789 14.39744561 -3.4021905 14.92657532 -7 15 C-9.32731556 13.86220128 -11.16840714 12.83159286 -13 11 C-13.69881711 3.89535942 -13.69881711 3.89535942 -11 0.4375 C-7.02721875 -1.46612435 -4.15377819 -1.39358359 0 0 Z " fill="#434343" transform="translate(395,39)"/>
<path d="M0 0 C1.65 0 3.3 0 5 0 C4.67 1.32 4.34 2.64 4 4 C2.35 3.67 0.7 3.34 -1 3 C-0.67 2.01 -0.34 1.02 0 0 Z " fill="#63BEC5" transform="translate(49,27)"/>
</svg>
